PathFileType	4	(X/Y/Z)	12_1_13_p1_0-324_filt_butterworth.trc
DataRate	CameraRate	NumFrames	NumMarkers	Units	OrigDataRate	OrigDataStartFrame	OrigNumFrames
59.0	59.0	5	27	m	59.0	243	324
Frame#	Time	RHip			RKnee			RAnkle			RBigToe			RSmallToe			RHeel			LHip			LKnee			LAnkle			LBigToe			LSmallToe			LHeel			Neck			Head			Nose			RShoulder			RElbow			RWrist			RThumb			RIndex			RPinky			LShoulder			LElbow			LWrist			LThumb			LIndex			LPinky			
		X1	Y1	Z1	X2	Y2	Z2	X3	Y3	Z3	X4	Y4	Z4	X5	Y5	Z5	X6	Y6	Z6	X7	Y7	Z7	X8	Y8	Z8	X9	Y9	Z9	X10	Y10	Z10	X11	Y11	Z11	X12	Y12	Z12	X13	Y13	Z13	X14	Y14	Z14	X15	Y15	Z15	X16	Y16	Z16	X17	Y17	Z17	X18	Y18	Z18	X19	Y19	Z19	X20	Y20	Z20	X21	Y21	Z21	X22	Y22	Z22	X23	Y23	Z23	X24	Y24	Z24	X25	Y25	Z25	X26	Y26	Z26	X27	Y27	Z27	
243	4.11864406779661	0.4302658607499268	0.48387083422101496	1.0217778801880975	0.4718660401500537	0.5414688115699301	1.501702132751082	0.4768733085952678	0.6253558220052595	1.9380055428286107	0.46876268762306345	0.364879933605493	1.9131848967406304	0.5254147493903065	0.40310460821843075	1.9153873648986859	0.4634461299008484	0.6569207302455382	2.0135706128739046	0.21158585138289807	0.5297541587891805	1.0673343022420063	0.2643100644114798	0.5330773031890623	1.5198511253304807	0.3269236399268333	0.5945524405796128	1.9504762802316877	0.33492871975829147	0.3659722777836861	1.934074413226865	0.2751749856292829	0.40191732986300066	1.9217875326855736	0.341543446993776	0.6434144029914627	2.0252667938223134	0.23215766023373371	0.5535791493662581	0.4304508462642731	0.23060729464247698	0.4696596202319834	0.1777829877175101	0.24195463507770382	0.4228878006887106	0.3154682485837747	0.4234933688138364	0.5670162162637301	0.4472953893214627	0.6016123144885387	0.5402264557405586	0.621921295143043	0.5607133868991583	0.39654829533944885	0.459601692477276	0.42712217838498145	0.4038444738318339	0.35994041172862823	0.41447430296265975	0.36357900406342575	0.35815435100217846	0.44040093416450354	0.3237975578415764	0.42967043982068853	0.10042242348482558	0.5751247059974627	0.5074480990881014	0.054870798749596335	0.5349658190533377	0.7899740268252029	0.15625314680963084	0.35303554030614237	0.636953627521057	0.18080638282808728	0.27589000057089286	0.538906288226629	0.19088779386153445	0.2698141941662317	0.5368973902433001	0.19569221479711943	0.2538193671019281	0.6004585770361628
244	4.135593220338983	0.43216364793624285	0.4844227530789731	1.0231013295059053	0.47181157942797186	0.5413112364046065	1.501631220172007	0.4767679084243037	0.6254465746195137	1.9380316894317027	0.46883875811806786	0.36489101054084644	1.9132153955413613	0.525357534611969	0.4029204228930191	1.9153201673195106	0.4634554343351246	0.6570578907050929	2.0136406695358864	0.2119968362302457	0.5296302488612314	1.067792708140465	0.26439458453610165	0.5330626226934044	1.519850146125759	0.3256366152993801	0.5900633283767645	1.947755769771246	0.33503908719370595	0.3657964116285136	1.9340469631922135	0.27493261663782953	0.4019352968082427	1.9218950882378554	0.34155626867254063	0.6434502644327553	2.025778511326671	0.233346120706613	0.5528930340309528	0.4279194648023177	0.23135831927563816	0.47280431427462744	0.17664955278735048	0.2430260520258224	0.4276768624596381	0.3134556481227002	0.424442652641503	0.5672810744186829	0.44831253979219154	0.6019005592403212	0.5462981011089759	0.6300438242848346	0.5499276049812425	0.3773551980162772	0.469552405368349	0.4410656028264619	0.398923236557959	0.36029853836453657	0.436493576284321	0.3560977911006155	0.35648591940944974	0.45662881445610903	0.3274606543149168	0.4230458430756536	0.10049014214329383	0.5747052397952971	0.507455259273207	0.05592947406658174	0.5384512479576806	0.7928710323553844	0.15702260550362446	0.35573817470453617	0.6386567825316327	0.18093104379569871	0.2747768800727757	0.5408688985505329	0.19336333006981504	0.2702328574379235	0.5384485367432984	0.1989404766740892	0.25650155388812856	0.6008928335673754
245	4.152542372881356	0.43367070384844625	0.4856776644023796	1.024325168574014	0.47171960539020175	0.5410183778321037	1.5014802256929005	0.4765828471522162	0.6252591375434788	1.9381589196089182	0.46872607000969335	0.36467996183574164	1.9131733308222705	0.5253663670711426	0.4028560105402165	1.9153798655470031	0.4634728925551982	0.6571843556844854	2.0136934214491577	0.2123018506014981	0.5293135190656321	1.0677860939887553	0.2644236443841601	0.5330589738467706	1.5198572363665117	0.32466549904481873	0.5863928358912772	1.945692706799134	0.3351435066859809	0.3654994690077416	1.9339108662388562	0.27410159061548606	0.40196647687903264	1.9219249852340727	0.3415407840606195	0.6434789306696675	2.025819306284988	0.234320699129751	0.5539421811278147	0.4239493465249404	0.23115310893531835	0.4754065408514708	0.17442449377303046	0.24477403885555302	0.4335050976810214	0.31150651323856005	0.42511154932630735	0.568108644554264	0.4496770527025023	0.601216349601569	0.5505300148820724	0.6388469867669516	0.5388176905695113	0.3596720013996449	0.48165782525866435	0.459384993413839	0.377752205877489	0.36989457111244795	0.4645328602612421	0.34072269666439237	0.3667763046099042	0.4813933226643744	0.3264124662390711	0.4282315537236928	0.10004744462759174	0.5744205332015571	0.5075533498134928	0.05638603794833062	0.5398909949616955	0.7941128901460335	0.15747869904174067	0.35686671296342243	0.6403344447933484	0.1825699089995084	0.27182375322949304	0.5434918608114367	0.19642914144838378	0.26806150442569476	0.5429843490746065	0.20287318902868048	0.2594741676467468	0.6021024850843092
246	4.169491525423729	0.4343964406999402	0.48826907176301604	1.0263846614835772	0.4717251850255997	0.5409906204258321	1.5014724699545818	0.47649392733274076	0.6250538231570603	1.9382364594643413	0.4680891772016564	0.364101605809214	1.9130037982591916	0.5254033592607467	0.40285413615673504	1.915511927916982	0.46350472803884435	0.6572381972586756	2.0137603674822966	0.21246994205196237	0.5289289473975409	1.0677257039501702	0.2644146989059506	0.5330789716775106	1.5198819348950576	0.32427045624711254	0.5848889991701287	1.9448700816026478	0.33513832561619034	0.3654644598512845	1.9336884195222717	0.2725473905041044	0.40213323135052037	1.9221265088843134	0.34152838898761567	0.6434849638279189	2.0257996551980444	0.23488240758228263	0.5550427872529587	0.4204793901423818	0.2300295554884009	0.47882108834478876	0.1723486276209801	0.2468802503055925	0.439041519600847	0.30910336905887814	0.42561459382958056	0.5690606202890607	0.4507171410076033	0.5990105570283049	0.5533621150880057	0.6486277245269685	0.5323936837186416	0.3498508942002258	0.4964049251060739	0.47536915532895324	0.3434726703423391	0.38614116322245157	0.48768395545126103	0.3226228339624829	0.385155112973536	0.501419443375428	0.31713917793744717	0.4431574293056079	0.09844398859332568	0.5753324020946976	0.5082517307640667	0.05646315949956705	0.5395866222661783	0.7948472525193188	0.1579967067023121	0.3573883483387164	0.6441407083025568	0.1866048700900585	0.2674950744409714	0.548699810001985	0.19841402178759307	0.2636282578468642	0.5527573549048733	0.20678705699733532	0.2620654700203594	0.6051780184906821
247	4.186440677966102	0.43458599964719513	0.49165833423294064	1.0296034070074551	0.47214438058609026	0.5421498877124629	1.5020701458442653	0.47683255666552077	0.6249704012616395	1.9382245245186147	0.4669378374677995	0.3636097784166919	1.9128571021370995	0.525395550211986	0.40292673434809784	1.9155632248059369	0.46357418890956953	0.6572189025973821	2.0138436286157484	0.2125183993292094	0.5286184002548691	1.0677523835340357	0.2643921696575684	0.533123850471257	1.5199618262368024	0.324232621246233	0.5848223316848653	1.9447977036882405	0.3347529243944822	0.3667088270758174	1.933730903861449	0.27056008155212785	0.4025032034105878	1.9226669794379192	0.3415455587672564	0.6435008525753559	2.0258955915396966	0.2349446004244292	0.5553534440098664	0.4184592494691618	0.22860208890794328	0.4829805518176311	0.17170216850830866	0.24871577916381032	0.442862892885702	0.30606089209823495	0.42595478610696424	0.569604393137924	0.451149899829449	0.5960168481594468	0.5551201072846408	0.6597657976764449	0.5311947828656606	0.3467373565340643	0.5157504275901246	0.4830043900214276	0.30817115838545156	0.408203637462694	0.49951256914660547	0.30543002752957654	0.40951533575463717	0.508195471440192	0.2984753361284487	0.4633056898677987	0.09569997417342238	0.5783529103074196	0.5099098393887033	0.05647314385575411	0.5381967871416733	0.7965482755939124	0.15901285241272975	0.3581727417854118	0.6516924513986366	0.19281974132144625	0.2633864101490866	0.5577651596696873	0.19888985063157577	0.2582579095687998	0.5664377740770805	0.21023547880943072	0.2638222251535467	0.6114320333859247
